<mxfile host="app.diagrams.net" modified="2022-02-18T05:52:38.111Z" agent="5.0 (Windows NT 10.0; Win64; x64) AppleWebKit/537.36 (KHTML, like Gecko) Chrome/98.0.4758.102 Safari/537.36" etag="jet_pFTLzZkOGVd-PHPG" version="16.6.1" type="github">
  <diagram id="C5RBs43oDa-KdzZeNtuy" name="Page-1">
    <mxGraphModel dx="1420" dy="794" grid="1" gridSize="10" guides="1" tooltips="1" connect="1" arrows="1" fold="1" page="1" pageScale="1" pageWidth="827" pageHeight="1169" math="0" shadow="0">
      <root>
        <mxCell id="WIyWlLk6GJQsqaUBKTNV-0" />
        <mxCell id="WIyWlLk6GJQsqaUBKTNV-1" parent="WIyWlLk6GJQsqaUBKTNV-0" />
        <mxCell id="i3ShQDGB82ohGUU4kW3y-0" value="start" style="ellipse;whiteSpace=wrap;html=1;" vertex="1" parent="WIyWlLk6GJQsqaUBKTNV-1">
          <mxGeometry x="290" y="40" width="120" height="40" as="geometry" />
        </mxCell>
        <mxCell id="i3ShQDGB82ohGUU4kW3y-2" value="read num1,num2" style="shape=parallelogram;perimeter=parallelogramPerimeter;whiteSpace=wrap;html=1;fixedSize=1;" vertex="1" parent="WIyWlLk6GJQsqaUBKTNV-1">
          <mxGeometry x="280" y="201" width="140" height="60" as="geometry" />
        </mxCell>
        <mxCell id="i3ShQDGB82ohGUU4kW3y-3" value="" style="endArrow=classic;html=1;rounded=0;" edge="1" parent="WIyWlLk6GJQsqaUBKTNV-1" source="i3ShQDGB82ohGUU4kW3y-0">
          <mxGeometry width="50" height="50" relative="1" as="geometry">
            <mxPoint x="250" y="420" as="sourcePoint" />
            <mxPoint x="350" y="200" as="targetPoint" />
          </mxGeometry>
        </mxCell>
        <mxCell id="i3ShQDGB82ohGUU4kW3y-6" value="" style="endArrow=classic;html=1;rounded=0;" edge="1" parent="WIyWlLk6GJQsqaUBKTNV-1" source="i3ShQDGB82ohGUU4kW3y-2">
          <mxGeometry width="50" height="50" relative="1" as="geometry">
            <mxPoint x="320" y="430" as="sourcePoint" />
            <mxPoint x="350" y="370" as="targetPoint" />
          </mxGeometry>
        </mxCell>
        <mxCell id="i3ShQDGB82ohGUU4kW3y-8" value="" style="endArrow=classic;html=1;rounded=0;exitX=0.45;exitY=1.017;exitDx=0;exitDy=0;exitPerimeter=0;" edge="1" parent="WIyWlLk6GJQsqaUBKTNV-1">
          <mxGeometry width="50" height="50" relative="1" as="geometry">
            <mxPoint x="348.22" y="430" as="sourcePoint" />
            <mxPoint x="351.7823697735797" y="543.98" as="targetPoint" />
            <Array as="points" />
          </mxGeometry>
        </mxCell>
        <mxCell id="i3ShQDGB82ohGUU4kW3y-11" value="&lt;span&gt;num1square = num1 * num1&lt;/span&gt;" style="rounded=0;whiteSpace=wrap;html=1;" vertex="1" parent="WIyWlLk6GJQsqaUBKTNV-1">
          <mxGeometry x="266" y="370" width="190" height="60" as="geometry" />
        </mxCell>
        <mxCell id="i3ShQDGB82ohGUU4kW3y-12" value="&lt;span&gt;num1square = num2 * num2&lt;/span&gt;" style="rounded=0;whiteSpace=wrap;html=1;" vertex="1" parent="WIyWlLk6GJQsqaUBKTNV-1">
          <mxGeometry x="255" y="554.5" width="190" height="60" as="geometry" />
        </mxCell>
        <mxCell id="i3ShQDGB82ohGUU4kW3y-14" value="&lt;span&gt;sum=&amp;nbsp;&lt;/span&gt;num1square +&lt;span&gt;&amp;nbsp;&lt;/span&gt;num1square" style="rounded=0;whiteSpace=wrap;html=1;" vertex="1" parent="WIyWlLk6GJQsqaUBKTNV-1">
          <mxGeometry x="255" y="810" width="190" height="60" as="geometry" />
        </mxCell>
        <mxCell id="i3ShQDGB82ohGUU4kW3y-15" value="" style="endArrow=classic;html=1;rounded=0;exitX=0.45;exitY=1.017;exitDx=0;exitDy=0;exitPerimeter=0;entryX=0.5;entryY=0;entryDx=0;entryDy=0;" edge="1" parent="WIyWlLk6GJQsqaUBKTNV-1" target="i3ShQDGB82ohGUU4kW3y-14">
          <mxGeometry width="50" height="50" relative="1" as="geometry">
            <mxPoint x="348.22" y="600" as="sourcePoint" />
            <mxPoint x="351.7823697735797" y="713.98" as="targetPoint" />
            <Array as="points" />
          </mxGeometry>
        </mxCell>
        <mxCell id="i3ShQDGB82ohGUU4kW3y-20" style="edgeStyle=orthogonalEdgeStyle;rounded=0;orthogonalLoop=1;jettySize=auto;html=1;" edge="1" parent="WIyWlLk6GJQsqaUBKTNV-1" source="i3ShQDGB82ohGUU4kW3y-16">
          <mxGeometry relative="1" as="geometry">
            <mxPoint x="360" y="970" as="targetPoint" />
          </mxGeometry>
        </mxCell>
        <mxCell id="i3ShQDGB82ohGUU4kW3y-16" value="print sum" style="shape=parallelogram;perimeter=parallelogramPerimeter;whiteSpace=wrap;html=1;fixedSize=1;" vertex="1" parent="WIyWlLk6GJQsqaUBKTNV-1">
          <mxGeometry x="301" y="979" width="120" height="60" as="geometry" />
        </mxCell>
        <mxCell id="i3ShQDGB82ohGUU4kW3y-17" value="" style="endArrow=classic;html=1;rounded=0;" edge="1" parent="WIyWlLk6GJQsqaUBKTNV-1">
          <mxGeometry width="50" height="50" relative="1" as="geometry">
            <mxPoint x="357.9526627218935" y="870" as="sourcePoint" />
            <mxPoint x="358" y="960" as="targetPoint" />
          </mxGeometry>
        </mxCell>
        <mxCell id="i3ShQDGB82ohGUU4kW3y-19" value="end" style="ellipse;whiteSpace=wrap;html=1;" vertex="1" parent="WIyWlLk6GJQsqaUBKTNV-1">
          <mxGeometry x="300" y="1110" width="120" height="30" as="geometry" />
        </mxCell>
        <mxCell id="i3ShQDGB82ohGUU4kW3y-21" value="" style="endArrow=classic;html=1;rounded=0;entryX=0.5;entryY=0;entryDx=0;entryDy=0;" edge="1" parent="WIyWlLk6GJQsqaUBKTNV-1" source="i3ShQDGB82ohGUU4kW3y-16" target="i3ShQDGB82ohGUU4kW3y-19">
          <mxGeometry width="50" height="50" relative="1" as="geometry">
            <mxPoint x="320" y="1160" as="sourcePoint" />
            <mxPoint x="370" y="1110" as="targetPoint" />
          </mxGeometry>
        </mxCell>
      </root>
    </mxGraphModel>
  </diagram>
</mxfile>
